<svg width="1410pt" height="836pt" viewBox="0.00 0.00 1410.00 836.00" xmlns="http://www.w3.org/2000/svg" xmlns:xlink="http://www.w3.org/1999/xlink">
<g id="graph1" class="graph" transform="scale(1 1) rotate(0) translate(4 832)">
<title>G</title>
<polygon fill="white" stroke="white" points="-4,5 -4,-832 1407,-832 1407,5 -4,5"></polygon>
<!-- V -->
<g id="node1" class="node"><title>V</title>
<ellipse fill="none" stroke="black" cx="1195" cy="-378" rx="27" ry="18"></ellipse>
<text text-anchor="middle" x="1195" y="-373.8" font-family="Times,serif" font-size="14.00">V</text>
</g>
<!-- O -->
<g id="node3" class="node"><title>O</title>
<ellipse fill="none" stroke="black" cx="1195" cy="-306" rx="27" ry="18"></ellipse>
<text text-anchor="middle" x="1195" y="-301.8" font-family="Times,serif" font-size="14.00">O</text>
</g>
<!-- V&#45;&gt;O -->
<g id="edge2" class="edge"><title>V-&gt;O</title>
<path fill="none" stroke="black" d="M1195,-359.697C1195,-351.983 1195,-342.712 1195,-334.112"></path>
<polygon fill="black" stroke="black" points="1198.5,-334.104 1195,-324.104 1191.5,-334.104 1198.5,-334.104"></polygon>
</g>
<!-- U -->
<g id="node36" class="node"><title>U</title>
<ellipse fill="none" stroke="black" cx="722" cy="-234" rx="27" ry="18"></ellipse>
<text text-anchor="middle" x="722" y="-229.8" font-family="Times,serif" font-size="14.00">U</text>
</g>
<!-- V&#45;&gt;U -->
<g id="edge94" class="edge"><title>V-&gt;U</title>
<path fill="none" stroke="black" d="M1177.63,-363.714C1150.75,-343.881 1096.79,-306.849 1045,-288 946.014,-251.972 821.023,-240.33 759.589,-236.649"></path>
<polygon fill="black" stroke="black" points="759.41,-233.134 749.23,-236.069 759.018,-240.123 759.41,-233.134"></polygon>
</g>
<!-- S -->
<g id="node6" class="node"><title>S</title>
<ellipse fill="none" stroke="black" cx="587" cy="-234" rx="27" ry="18"></ellipse>
<text text-anchor="middle" x="587" y="-229.8" font-family="Times,serif" font-size="14.00">S</text>
</g>
<!-- O&#45;&gt;S -->
<g id="edge148" class="edge"><title>O-&gt;S</title>
<path fill="none" stroke="black" d="M1168.46,-301.887C1138.49,-298.397 1088.26,-292.62 1045,-288 885.551,-270.971 844.897,-273.583 686,-252 664.859,-249.128 641.313,-245.119 622.491,-241.715"></path>
<polygon fill="black" stroke="black" points="623.031,-238.256 612.564,-239.897 621.77,-245.141 623.031,-238.256"></polygon>
</g>
<!-- Y -->
<g id="node9" class="node"><title>Y</title>
<ellipse fill="none" stroke="black" cx="494" cy="-18" rx="27" ry="18"></ellipse>
<text text-anchor="middle" x="494" y="-13.8" font-family="Times,serif" font-size="14.00">Y</text>
</g>
<!-- O&#45;&gt;Y -->
<g id="edge76" class="edge"><title>O-&gt;Y</title>
<path fill="none" stroke="black" d="M1184.09,-289.48C1151.24,-244.332 1047.8,-113.625 924,-72 784.409,-25.066 606.818,-18.9217 531.004,-18.6276"></path>
<polygon fill="black" stroke="black" points="530.998,-15.1277 520.996,-18.6213 530.994,-22.1277 530.998,-15.1277"></polygon>
</g>
<!-- D -->
<g id="node11" class="node"><title>D</title>
<ellipse fill="none" stroke="black" cx="792" cy="-162" rx="27" ry="18"></ellipse>
<text text-anchor="middle" x="792" y="-157.8" font-family="Times,serif" font-size="14.00">D</text>
</g>
<!-- O&#45;&gt;D -->
<g id="edge146" class="edge"><title>O-&gt;D</title>
<path fill="none" stroke="black" d="M1171.59,-296.752C1103.29,-272.684 904.067,-202.488 824.947,-174.609"></path>
<polygon fill="black" stroke="black" points="826.068,-171.293 815.474,-171.271 823.742,-177.896 826.068,-171.293"></polygon>
</g>
<!-- J -->
<g id="node19" class="node"><title>J</title>
<ellipse fill="none" stroke="black" cx="722" cy="-90" rx="27" ry="18"></ellipse>
<text text-anchor="middle" x="722" y="-85.8" font-family="Times,serif" font-size="14.00">J</text>
</g>
<!-- O&#45;&gt;J -->
<g id="edge24" class="edge"><title>O-&gt;J</title>
<path fill="none" stroke="black" d="M1183.76,-289.522C1159,-256.7 1096.18,-180.168 1024,-144 936.41,-100.111 818.672,-91.9346 759.405,-90.8056"></path>
<polygon fill="black" stroke="black" points="759.084,-87.3012 749.039,-90.6698 758.993,-94.3006 759.084,-87.3012"></polygon>
</g>
<!-- F -->
<g id="node4" class="node"><title>F</title>
<ellipse fill="none" stroke="black" cx="514" cy="-594" rx="27" ry="18"></ellipse>
<text text-anchor="middle" x="514" y="-589.8" font-family="Times,serif" font-size="14.00">F</text>
</g>
<!-- F&#45;&gt;S -->
<g id="edge4" class="edge"><title>F-&gt;S</title>
<path fill="none" stroke="black" d="M495.516,-580.664C482.802,-571.128 466.697,-556.751 458,-540 420.888,-468.517 411.53,-436.409 437,-360 449.649,-322.053 460.819,-314.251 491,-288 510.134,-271.357 535.347,-257.685 555.133,-248.397"></path>
<polygon fill="black" stroke="black" points="556.709,-251.526 564.359,-244.196 553.808,-245.155 556.709,-251.526"></polygon>
</g>
<!-- F&#45;&gt;D -->
<g id="edge180" class="edge"><title>F-&gt;D</title>
<path fill="none" stroke="black" d="M526.95,-577.966C566.123,-531.905 685.134,-387.629 758,-252 768.782,-231.931 777.804,-207.694 783.839,-189.584"></path>
<polygon fill="black" stroke="black" points="787.203,-190.555 786.957,-179.963 780.544,-188.397 787.203,-190.555"></polygon>
</g>
<!-- I -->
<g id="node38" class="node"><title>I</title>
<ellipse fill="none" stroke="black" cx="325" cy="-306" rx="27" ry="18"></ellipse>
<text text-anchor="middle" x="325" y="-301.8" font-family="Times,serif" font-size="14.00">I</text>
</g>
<!-- F&#45;&gt;I -->
<g id="edge56" class="edge"><title>F-&gt;I</title>
<path fill="none" stroke="black" d="M488.677,-586.947C463.825,-579.754 426.475,-565.402 404,-540 350.564,-479.606 332.978,-381.568 327.427,-334.256"></path>
<polygon fill="black" stroke="black" points="330.891,-333.732 326.338,-324.165 323.931,-334.483 330.891,-333.732"></polygon>
</g>
<!-- E -->
<g id="node39" class="node"><title>E</title>
<ellipse fill="none" stroke="black" cx="1039" cy="-450" rx="27" ry="18"></ellipse>
<text text-anchor="middle" x="1039" y="-445.8" font-family="Times,serif" font-size="14.00">E</text>
</g>
<!-- F&#45;&gt;E -->
<g id="edge118" class="edge"><title>F-&gt;E</title>
<path fill="none" stroke="black" d="M540.662,-591.141C615.502,-585.626 826.151,-567.97 889,-540 911.771,-529.866 911.131,-517.627 932,-504 956.041,-488.302 985.389,-474.076 1007.26,-464.325"></path>
<polygon fill="black" stroke="black" points="1008.69,-467.521 1016.44,-460.299 1005.88,-461.11 1008.69,-467.521"></polygon>
</g>
<!-- C -->
<g id="node75" class="node"><title>C</title>
<ellipse fill="none" stroke="black" cx="514" cy="-522" rx="27" ry="18"></ellipse>
<text text-anchor="middle" x="514" y="-517.8" font-family="Times,serif" font-size="14.00">C</text>
</g>
<!-- F&#45;&gt;C -->
<g id="edge112" class="edge"><title>F-&gt;C</title>
<path fill="none" stroke="black" d="M514,-575.697C514,-567.983 514,-558.712 514,-550.112"></path>
<polygon fill="black" stroke="black" points="517.5,-550.104 514,-540.104 510.5,-550.104 517.5,-550.104"></polygon>
</g>
<!-- S&#45;&gt;Y -->
<g id="edge70" class="edge"><title>S-&gt;Y</title>
<path fill="none" stroke="black" d="M579.857,-216.563C563.763,-179.53 524.565,-89.3321 505.202,-44.7762"></path>
<polygon fill="black" stroke="black" points="508.363,-43.2693 501.167,-35.4929 501.943,-46.0593 508.363,-43.2693"></polygon>
</g>
<!-- S&#45;&gt;D -->
<g id="edge8" class="edge"><title>S-&gt;D</title>
<path fill="none" stroke="black" d="M610.516,-224.97C646.951,-212.529 717.169,-188.552 758.771,-174.346"></path>
<polygon fill="black" stroke="black" points="760.111,-177.587 768.443,-171.044 757.849,-170.963 760.111,-177.587"></polygon>
</g>
<!-- S&#45;&gt;J -->
<g id="edge14" class="edge"><title>S-&gt;J</title>
<path fill="none" stroke="black" d="M600.939,-218.338C624.686,-193.36 673.117,-142.417 700.988,-113.102"></path>
<polygon fill="black" stroke="black" points="703.581,-115.454 707.935,-105.795 698.508,-110.631 703.581,-115.454"></polygon>
</g>
<!-- Q -->
<g id="node30" class="node"><title>Q</title>
<ellipse fill="none" stroke="black" cx="418" cy="-90" rx="27" ry="18"></ellipse>
<text text-anchor="middle" x="418" y="-85.8" font-family="Times,serif" font-size="14.00">Q</text>
</g>
<!-- S&#45;&gt;Q -->
<g id="edge108" class="edge"><title>S-&gt;Q</title>
<path fill="none" stroke="black" d="M563.311,-225.205C540.201,-216.748 504.973,-201.513 480,-180 459.157,-162.044 441.911,-135.597 430.945,-116.199"></path>
<polygon fill="black" stroke="black" points="433.951,-114.4 426.078,-107.31 427.811,-117.762 433.951,-114.4"></polygon>
</g>
<!-- M -->
<g id="node7" class="node"><title>M</title>
<ellipse fill="none" stroke="black" cx="1009" cy="-306" rx="27" ry="18"></ellipse>
<text text-anchor="middle" x="1009" y="-301.8" font-family="Times,serif" font-size="14.00">M</text>
</g>
<!-- M&#45;&gt;Y -->
<g id="edge6" class="edge"><title>M-&gt;Y</title>
<path fill="none" stroke="black" d="M1020.02,-289.126C1026.35,-279.007 1033.69,-265.333 1037,-252 1048.63,-205.074 1056.22,-180.041 1024,-144 957.453,-69.572 639.929,-32.8684 530.874,-22.3045"></path>
<polygon fill="black" stroke="black" points="530.976,-18.7985 520.689,-21.3357 530.313,-25.7671 530.976,-18.7985"></polygon>
</g>
<!-- M&#45;&gt;J -->
<g id="edge140" class="edge"><title>M-&gt;J</title>
<path fill="none" stroke="black" d="M1014.36,-287.965C1023.37,-255.601 1037.34,-184.823 1002,-144 970.877,-108.052 828.635,-96.2071 759.687,-92.5362"></path>
<polygon fill="black" stroke="black" points="759.442,-89.0196 749.279,-92.0148 759.092,-96.0108 759.442,-89.0196"></polygon>
</g>
<!-- M&#45;&gt;Q -->
<g id="edge46" class="edge"><title>M-&gt;Q</title>
<path fill="none" stroke="black" d="M997.204,-289.523C970.945,-256.355 903.959,-178.632 828,-144 761.715,-113.779 542.75,-98.1605 454.923,-92.9886"></path>
<polygon fill="black" stroke="black" points="455.066,-89.4911 444.881,-92.4094 454.663,-96.4795 455.066,-89.4911"></polygon>
</g>
<!-- M&#45;&gt;U -->
<g id="edge78" class="edge"><title>M-&gt;U</title>
<path fill="none" stroke="black" d="M984.033,-298.91C932.829,-286.422 815.814,-257.881 757.043,-243.547"></path>
<polygon fill="black" stroke="black" points="757.659,-240.095 747.114,-241.125 756,-246.895 757.659,-240.095"></polygon>
</g>
<!-- D&#45;&gt;Y -->
<g id="edge86" class="edge"><title>D-&gt;Y</title>
<path fill="none" stroke="black" d="M790.336,-143.764C787.419,-123.447 779.47,-90.1577 758,-72 724.103,-43.3331 595.192,-28.0301 530.907,-22.0404"></path>
<polygon fill="black" stroke="black" points="531.074,-18.5412 520.799,-21.1259 530.443,-25.5128 531.074,-18.5412"></polygon>
</g>
<!-- D&#45;&gt;J -->
<g id="edge178" class="edge"><title>D-&gt;J</title>
<path fill="none" stroke="black" d="M777.496,-146.496C767.735,-136.735 754.69,-123.69 743.7,-112.7"></path>
<polygon fill="black" stroke="black" points="746.031,-110.082 736.485,-105.485 741.082,-115.031 746.031,-110.082"></polygon>
</g>
<!-- D&#45;&gt;Q -->
<g id="edge200" class="edge"><title>D-&gt;Q</title>
<path fill="none" stroke="black" d="M766.293,-156.189C701.039,-143.975 528.85,-111.747 453.809,-97.7022"></path>
<polygon fill="black" stroke="black" points="454.36,-94.2446 443.886,-95.8451 453.072,-101.125 454.36,-94.2446"></polygon>
</g>
<!-- L -->
<g id="node12" class="node"><title>L</title>
<ellipse fill="none" stroke="black" cx="304" cy="-738" rx="27" ry="18"></ellipse>
<text text-anchor="middle" x="304" y="-733.8" font-family="Times,serif" font-size="14.00">L</text>
</g>
<!-- P -->
<g id="node14" class="node"><title>P</title>
<ellipse fill="none" stroke="black" cx="418" cy="-666" rx="27" ry="18"></ellipse>
<text text-anchor="middle" x="418" y="-661.8" font-family="Times,serif" font-size="14.00">P</text>
</g>
<!-- L&#45;&gt;P -->
<g id="edge10" class="edge"><title>L-&gt;P</title>
<path fill="none" stroke="black" d="M323.339,-725.125C341.599,-713.913 369.195,-696.968 389.887,-684.263"></path>
<polygon fill="black" stroke="black" points="391.876,-687.148 398.567,-678.933 388.213,-681.183 391.876,-687.148"></polygon>
</g>
<!-- B -->
<g id="node28" class="node"><title>B</title>
<ellipse fill="none" stroke="black" cx="473" cy="-378" rx="27" ry="18"></ellipse>
<text text-anchor="middle" x="473" y="-373.8" font-family="Times,serif" font-size="14.00">B</text>
</g>
<!-- L&#45;&gt;B -->
<g id="edge60" class="edge"><title>L-&gt;B</title>
<path fill="none" stroke="black" d="M311.701,-720.687C338.535,-663.843 428.068,-474.181 460.844,-404.75"></path>
<polygon fill="black" stroke="black" points="464.15,-405.946 465.254,-395.409 457.82,-402.957 464.15,-405.946"></polygon>
</g>
<!-- K -->
<g id="node43" class="node"><title>K</title>
<ellipse fill="none" stroke="black" cx="853" cy="-594" rx="27" ry="18"></ellipse>
<text text-anchor="middle" x="853" y="-589.8" font-family="Times,serif" font-size="14.00">K</text>
</g>
<!-- L&#45;&gt;K -->
<g id="edge126" class="edge"><title>L-&gt;K</title>
<path fill="none" stroke="black" d="M330.944,-736.139C433.577,-732.615 796.189,-717.843 834,-684 850.965,-668.816 854.851,-642.526 855.007,-622.444"></path>
<polygon fill="black" stroke="black" points="858.503,-622.239 854.784,-612.319 851.505,-622.394 858.503,-622.239"></polygon>
</g>
<!-- A -->
<g id="node70" class="node"><title>A</title>
<ellipse fill="none" stroke="black" cx="169" cy="-450" rx="27" ry="18"></ellipse>
<text text-anchor="middle" x="169" y="-445.8" font-family="Times,serif" font-size="14.00">A</text>
</g>
<!-- L&#45;&gt;A -->
<g id="edge96" class="edge"><title>L-&gt;A</title>
<path fill="none" stroke="black" d="M277.43,-734.347C247.191,-729.762 199.021,-717.354 176,-684 132.599,-621.12 149.405,-524.263 161.221,-477.742"></path>
<polygon fill="black" stroke="black" points="164.67,-478.391 163.86,-467.827 157.905,-476.59 164.67,-478.391"></polygon>
</g>
<!-- P&#45;&gt;F -->
<g id="edge80" class="edge"><title>P-&gt;F</title>
<path fill="none" stroke="black" d="M435.608,-652.161C450.358,-641.405 471.613,-625.907 488.271,-613.761"></path>
<polygon fill="black" stroke="black" points="490.486,-616.477 496.504,-607.758 486.362,-610.821 490.486,-616.477"></polygon>
</g>
<!-- P&#45;&gt;Y -->
<g id="edge40" class="edge"><title>P-&gt;Y</title>
<path fill="none" stroke="black" d="M392.168,-660.456C301.034,-642.802 0,-570.028 0,-379 0,-379 0,-379 0,-161 0,-113.045 20.0142,-96.8962 61,-72 127.3,-31.7271 364.76,-21.9699 456.996,-19.6787"></path>
<polygon fill="black" stroke="black" points="457.079,-23.1778 466.995,-19.4457 456.916,-16.1797 457.079,-23.1778"></polygon>
</g>
<!-- P&#45;&gt;I -->
<g id="edge158" class="edge"><title>P-&gt;I</title>
<path fill="none" stroke="black" d="M409.759,-648.571C389.7,-607.379 339.097,-495.844 327,-396 324.506,-375.416 324.077,-351.965 324.233,-334.304"></path>
<polygon fill="black" stroke="black" points="327.735,-334.187 324.393,-324.133 320.736,-334.077 327.735,-334.187"></polygon>
</g>
<!-- P&#45;&gt;E -->
<g id="edge110" class="edge"><title>P-&gt;E</title>
<path fill="none" stroke="black" d="M443.288,-659.59C539.671,-638.856 880.756,-564.405 924,-540 943.706,-528.879 942.522,-518.371 960,-504 975.996,-490.847 995.275,-477.864 1010.78,-468.039"></path>
<polygon fill="black" stroke="black" points="1012.8,-470.908 1019.43,-462.642 1009.09,-464.971 1012.8,-470.908"></polygon>
</g>
<!-- N -->
<g id="node55" class="node"><title>N</title>
<ellipse fill="none" stroke="black" cx="891" cy="-450" rx="27" ry="18"></ellipse>
<text text-anchor="middle" x="891" y="-445.8" font-family="Times,serif" font-size="14.00">N</text>
</g>
<!-- P&#45;&gt;N -->
<g id="edge68" class="edge"><title>P-&gt;N</title>
<path fill="none" stroke="black" d="M441.064,-656.217C467.545,-646.023 512.202,-628.494 550,-612 666.237,-561.277 801.817,-495.13 860.908,-465.946"></path>
<polygon fill="black" stroke="black" points="862.638,-468.995 870.05,-461.424 859.534,-462.721 862.638,-468.995"></polygon>
</g>
<!-- Z -->
<g id="node15" class="node"><title>Z</title>
<ellipse fill="none" stroke="black" cx="1132" cy="-738" rx="27" ry="18"></ellipse>
<text text-anchor="middle" x="1132" y="-733.8" font-family="Times,serif" font-size="14.00">Z</text>
</g>
<!-- Z&#45;&gt;O -->
<g id="edge150" class="edge"><title>Z-&gt;O</title>
<path fill="none" stroke="black" d="M1158.3,-733.514C1188.21,-728.152 1236.45,-715.021 1264,-684 1291.2,-653.367 1288,-635.969 1288,-595 1288,-595 1288,-595 1288,-449 1288,-408.031 1286.78,-394.052 1264,-360 1253.94,-344.964 1238.19,-332.396 1224.28,-323.279"></path>
<polygon fill="black" stroke="black" points="1225.82,-320.113 1215.48,-317.794 1222.11,-326.054 1225.82,-320.113"></polygon>
</g>
<!-- Z&#45;&gt;S -->
<g id="edge104" class="edge"><title>Z-&gt;S</title>
<path fill="none" stroke="black" d="M1106.79,-731.466C1089.93,-727.884 1067.2,-723.292 1047,-720 938.847,-702.377 570,-704.579 570,-595 570,-595 570,-595 570,-377 570,-336.71 576.83,-290.444 581.832,-261.965"></path>
<polygon fill="black" stroke="black" points="585.304,-262.434 583.641,-251.971 578.416,-261.187 585.304,-262.434"></polygon>
</g>
<!-- Z&#45;&gt;M -->
<g id="edge20" class="edge"><title>Z-&gt;M</title>
<path fill="none" stroke="black" d="M1140.3,-720.422C1152.54,-694.393 1174,-642.047 1174,-595 1174,-595 1174,-595 1174,-521 1174,-431.972 1083.33,-357.34 1036.42,-324.683"></path>
<polygon fill="black" stroke="black" points="1038.16,-321.637 1027.93,-318.899 1034.22,-327.422 1038.16,-321.637"></polygon>
</g>
<!-- Z&#45;&gt;D -->
<g id="edge84" class="edge"><title>Z-&gt;D</title>
<path fill="none" stroke="black" d="M1158.16,-733.516C1218.84,-723.82 1364,-690.628 1364,-595 1364,-595 1364,-595 1364,-377 1364,-262.011 953.376,-188.252 827.95,-168.404"></path>
<polygon fill="black" stroke="black" points="828.485,-164.945 818.064,-166.858 827.403,-171.861 828.485,-164.945"></polygon>
</g>
<!-- T -->
<g id="node17" class="node"><title>T</title>
<ellipse fill="none" stroke="black" cx="798" cy="-666" rx="27" ry="18"></ellipse>
<text text-anchor="middle" x="798" y="-661.8" font-family="Times,serif" font-size="14.00">T</text>
</g>
<!-- Z&#45;&gt;T -->
<g id="edge12" class="edge"><title>Z-&gt;T</title>
<path fill="none" stroke="black" d="M1106.62,-731.681C1047.66,-719.325 901.319,-688.654 833.521,-674.445"></path>
<polygon fill="black" stroke="black" points="833.845,-670.936 823.34,-672.311 832.409,-677.788 833.845,-670.936"></polygon>
</g>
<!-- T&#45;&gt;B -->
<g id="edge64" class="edge"><title>T-&gt;B</title>
<path fill="none" stroke="black" d="M774.723,-656.703C702.605,-630.893 487.159,-552.973 478,-540 449.937,-500.249 457.712,-440.156 465.573,-405.738"></path>
<polygon fill="black" stroke="black" points="468.995,-406.478 467.975,-395.932 462.196,-404.812 468.995,-406.478"></polygon>
</g>
<!-- X -->
<g id="node31" class="node"><title>X</title>
<ellipse fill="none" stroke="black" cx="819" cy="-378" rx="27" ry="18"></ellipse>
<text text-anchor="middle" x="819" y="-373.8" font-family="Times,serif" font-size="14.00">X</text>
</g>
<!-- T&#45;&gt;X -->
<g id="edge154" class="edge"><title>T-&gt;X</title>
<path fill="none" stroke="black" d="M799.251,-647.966C802.751,-600.291 812.672,-465.185 816.971,-406.63"></path>
<polygon fill="black" stroke="black" points="820.487,-406.536 817.729,-396.306 813.506,-406.023 820.487,-406.536"></polygon>
</g>
<!-- T&#45;&gt;U -->
<g id="edge130" class="edge"><title>T-&gt;U</title>
<path fill="none" stroke="black" d="M794.76,-647.994C785.311,-598.235 757.121,-448.583 736,-324 732.493,-303.311 728.816,-279.865 726.112,-262.232"></path>
<polygon fill="black" stroke="black" points="729.531,-261.439 724.563,-252.082 722.611,-262.495 729.531,-261.439"></polygon>
</g>
<!-- T&#45;&gt;K -->
<g id="edge202" class="edge"><title>T-&gt;K</title>
<path fill="none" stroke="black" d="M809.934,-649.811C817.214,-640.546 826.663,-628.52 834.854,-618.094"></path>
<polygon fill="black" stroke="black" points="837.663,-620.185 841.089,-610.159 832.159,-615.86 837.663,-620.185"></polygon>
</g>
<!-- J&#45;&gt;Y -->
<g id="edge168" class="edge"><title>J-&gt;Y</title>
<path fill="none" stroke="black" d="M700.053,-79.3457C693.94,-76.809 687.259,-74.1763 681,-72 628.851,-53.8682 566.975,-37.2637 529.108,-27.6409"></path>
<polygon fill="black" stroke="black" points="529.644,-24.1667 519.092,-25.1164 527.933,-30.9544 529.644,-24.1667"></polygon>
</g>
<!-- W -->
<g id="node20" class="node"><title>W</title>
<ellipse fill="none" stroke="black" cx="853" cy="-522" rx="27" ry="18"></ellipse>
<text text-anchor="middle" x="853" y="-517.8" font-family="Times,serif" font-size="14.00">W</text>
</g>
<!-- W&#45;&gt;M -->
<g id="edge16" class="edge"><title>W-&gt;M</title>
<path fill="none" stroke="black" d="M873.197,-510.005C898.114,-496.304 937.836,-473.962 943,-468 977.414,-428.269 995.537,-368.169 1003.62,-333.744"></path>
<polygon fill="black" stroke="black" points="1007.04,-334.459 1005.81,-323.936 1000.21,-332.932 1007.04,-334.459"></polygon>
</g>
<!-- W&#45;&gt;B -->
<g id="edge32" class="edge"><title>W-&gt;B</title>
<path fill="none" stroke="black" d="M838.562,-506.46C817.79,-486.431 777.395,-450.714 736,-432 660.359,-397.804 562.571,-385.534 510.132,-381.235"></path>
<polygon fill="black" stroke="black" points="510.2,-377.73 499.962,-380.455 509.665,-384.709 510.2,-377.73"></polygon>
</g>
<!-- W&#45;&gt;X -->
<g id="edge160" class="edge"><title>W-&gt;X</title>
<path fill="none" stroke="black" d="M875.692,-511.767C893.249,-503.266 916.312,-488.802 927,-468 934.312,-453.769 935.462,-445.579 927,-432 911.272,-406.761 879.63,-393.202 854.643,-386.138"></path>
<polygon fill="black" stroke="black" points="855.31,-382.696 844.752,-383.575 853.554,-389.472 855.31,-382.696"></polygon>
</g>
<!-- W&#45;&gt;E -->
<g id="edge142" class="edge"><title>W-&gt;E</title>
<path fill="none" stroke="black" d="M875.033,-511.581C881.146,-509.045 887.805,-506.354 894,-504 939.723,-486.625 952.277,-485.375 998,-468 1001.1,-466.823 1004.31,-465.562 1007.51,-464.278"></path>
<polygon fill="black" stroke="black" points="1009.03,-467.439 1016.97,-460.419 1006.39,-460.958 1009.03,-467.439"></polygon>
</g>
<!-- W&#45;&gt;N -->
<g id="edge62" class="edge"><title>W-&gt;N</title>
<path fill="none" stroke="black" d="M861.813,-504.765C866.418,-496.283 872.155,-485.714 877.321,-476.197"></path>
<polygon fill="black" stroke="black" points="880.539,-477.606 882.234,-467.147 874.387,-474.266 880.539,-477.606"></polygon>
</g>
<!-- G -->
<g id="node22" class="node"><title>G</title>
<ellipse fill="none" stroke="black" cx="1011" cy="-738" rx="27" ry="18"></ellipse>
<text text-anchor="middle" x="1011" y="-733.8" font-family="Times,serif" font-size="14.00">G</text>
</g>
<!-- G&#45;&gt;O -->
<g id="edge88" class="edge"><title>G-&gt;O</title>
<path fill="none" stroke="black" d="M1035.84,-730.501C1064.64,-722.309 1112.91,-706.522 1150,-684 1200.85,-653.116 1250,-654.497 1250,-595 1250,-595 1250,-595 1250,-449 1250,-408.553 1246.88,-397.199 1231,-360 1226.61,-349.719 1220.12,-339.342 1213.85,-330.529"></path>
<polygon fill="black" stroke="black" points="1216.52,-328.244 1207.75,-322.298 1210.89,-332.415 1216.52,-328.244"></polygon>
</g>
<!-- G&#45;&gt;M -->
<g id="edge22" class="edge"><title>G-&gt;M</title>
<path fill="none" stroke="black" d="M1024.13,-721.856C1032.09,-711.803 1041.71,-697.935 1047,-684 1086.99,-578.645 1101.5,-541.53 1075,-432 1065.84,-394.14 1042.67,-355.176 1026.38,-331.03"></path>
<polygon fill="black" stroke="black" points="1029.08,-328.778 1020.52,-322.535 1023.32,-332.754 1029.08,-328.778"></polygon>
</g>
<!-- G&#45;&gt;Y -->
<g id="edge164" class="edge"><title>G-&gt;Y</title>
<path fill="none" stroke="black" d="M1036.6,-731.657C1081.36,-722.011 1171.7,-701.098 1199,-684 1250.53,-651.732 1402,-500.652 1402,-451 1402,-451 1402,-451 1402,-161 1402,-71.3327 701.879,-29.6487 531.188,-20.8185"></path>
<polygon fill="black" stroke="black" points="531.34,-17.3218 521.175,-20.3069 530.983,-24.3127 531.34,-17.3218"></polygon>
</g>
<!-- G&#45;&gt;D -->
<g id="edge102" class="edge"><title>G-&gt;D</title>
<path fill="none" stroke="black" d="M1028.55,-724.121C1040.81,-714.322 1056.76,-699.854 1067,-684 1085.38,-655.547 1084.08,-644.934 1092,-612 1126.04,-470.53 1146.97,-391.799 1045,-288 1010.72,-253.107 985.34,-272.65 941,-252 896.196,-231.134 847.635,-200.468 818.526,-181.127"></path>
<polygon fill="black" stroke="black" points="820.399,-178.169 810.143,-175.512 816.503,-183.985 820.399,-178.169"></polygon>
</g>
<!-- G&#45;&gt;W -->
<g id="edge66" class="edge"><title>G-&gt;W</title>
<path fill="none" stroke="black" d="M999.637,-721.61C972.373,-684.683 903.097,-590.853 870.483,-546.679"></path>
<polygon fill="black" stroke="black" points="873.228,-544.504 864.472,-538.538 867.596,-548.662 873.228,-544.504"></polygon>
</g>
<!-- H -->
<g id="node24" class="node"><title>H</title>
<ellipse fill="none" stroke="black" cx="1011" cy="-666" rx="27" ry="18"></ellipse>
<text text-anchor="middle" x="1011" y="-661.8" font-family="Times,serif" font-size="14.00">H</text>
</g>
<!-- G&#45;&gt;H -->
<g id="edge18" class="edge"><title>G-&gt;H</title>
<path fill="none" stroke="black" d="M1011,-719.697C1011,-711.983 1011,-702.712 1011,-694.112"></path>
<polygon fill="black" stroke="black" points="1014.5,-694.104 1011,-684.104 1007.5,-694.104 1014.5,-694.104"></polygon>
</g>
<!-- G&#45;&gt;Q -->
<g id="edge58" class="edge"><title>G-&gt;Q</title>
<path fill="none" stroke="black" d="M983.658,-737.318C873.539,-738.219 462.894,-737.833 347,-684 224.439,-627.07 184.424,-592.971 133,-468 67.0934,-307.835 303.645,-155.48 388.676,-106.951"></path>
<polygon fill="black" stroke="black" points="390.582,-109.894 397.576,-101.936 387.145,-103.796 390.582,-109.894"></polygon>
</g>
<!-- G&#45;&gt;I -->
<g id="edge82" class="edge"><title>G-&gt;I</title>
<path fill="none" stroke="black" d="M983.886,-736.549C869.279,-734.401 428.343,-723.602 382,-684 278.129,-595.239 304.7,-404.533 318.894,-333.972"></path>
<polygon fill="black" stroke="black" points="322.34,-334.591 320.962,-324.086 315.488,-333.157 322.34,-334.591"></polygon>
</g>
<!-- H&#45;&gt;J -->
<g id="edge162" class="edge"><title>H-&gt;J</title>
<path fill="none" stroke="black" d="M1034.42,-656.915C1107.42,-630.065 1326,-536.518 1326,-379 1326,-379 1326,-379 1326,-305 1326,-168.327 1192.27,-191.171 1064,-144 957.965,-105.008 823.19,-94.7022 759.098,-91.9784"></path>
<polygon fill="black" stroke="black" points="759.197,-88.4797 749.069,-91.5904 758.926,-95.4745 759.197,-88.4797"></polygon>
</g>
<!-- H&#45;&gt;E -->
<g id="edge196" class="edge"><title>H-&gt;E</title>
<path fill="none" stroke="black" d="M1015.28,-648.157C1021.15,-624.278 1031.46,-579.131 1036,-540 1038.39,-519.398 1039.1,-495.947 1039.23,-478.291"></path>
<polygon fill="black" stroke="black" points="1042.73,-478.13 1039.25,-468.124 1035.73,-478.117 1042.73,-478.13"></polygon>
</g>
<!-- H&#45;&gt;K -->
<g id="edge42" class="edge"><title>H-&gt;K</title>
<path fill="none" stroke="black" d="M989.031,-655.267C961.792,-643.199 915.186,-622.551 884.236,-608.839"></path>
<polygon fill="black" stroke="black" points="885.343,-605.501 874.783,-604.651 882.508,-611.901 885.343,-605.501"></polygon>
</g>
<!-- H&#45;&gt;N -->
<g id="edge90" class="edge"><title>H-&gt;N</title>
<path fill="none" stroke="black" d="M1001.98,-648.915C981.219,-611.89 929.924,-520.414 905.018,-475.998"></path>
<polygon fill="black" stroke="black" points="908.068,-474.282 900.124,-467.271 901.962,-477.706 908.068,-474.282"></polygon>
</g>
<!-- B&#45;&gt;S -->
<g id="edge44" class="edge"><title>B-&gt;S</title>
<path fill="none" stroke="black" d="M478.845,-360.281C486.022,-341.355 499.551,-310.264 518,-288 529.543,-274.07 545.387,-261.574 558.982,-252.219"></path>
<polygon fill="black" stroke="black" points="561.133,-254.992 567.523,-246.541 557.258,-249.162 561.133,-254.992"></polygon>
</g>
<!-- B&#45;&gt;Y -->
<g id="edge124" class="edge"><title>B-&gt;Y</title>
<path fill="none" stroke="black" d="M446.767,-373.335C400.633,-366.295 308.041,-349.3 289,-324 279.379,-311.216 286.993,-303.874 289,-288 301.542,-188.79 281.668,-143.088 352,-72 380.35,-43.3456 425.615,-30.0065 457.402,-23.914"></path>
<polygon fill="black" stroke="black" points="458.38,-27.2957 467.621,-22.114 457.166,-20.4018 458.38,-27.2957"></polygon>
</g>
<!-- B&#45;&gt;J -->
<g id="edge190" class="edge"><title>B-&gt;J</title>
<path fill="none" stroke="black" d="M473.972,-359.811C475.578,-341.281 479.821,-311.312 491,-288 534.017,-198.295 639.179,-133.776 691.459,-106.07"></path>
<polygon fill="black" stroke="black" points="693.322,-109.046 700.579,-101.327 690.092,-102.836 693.322,-109.046"></polygon>
</g>
<!-- B&#45;&gt;Q -->
<g id="edge26" class="edge"><title>B-&gt;Q</title>
<path fill="none" stroke="black" d="M451.129,-367.01C434.821,-358.238 413.749,-343.782 404,-324 370.345,-255.711 393.625,-162.171 408.401,-117.217"></path>
<polygon fill="black" stroke="black" points="411.755,-118.225 411.668,-107.631 405.129,-115.967 411.755,-118.225"></polygon>
</g>
<!-- B&#45;&gt;U -->
<g id="edge34" class="edge"><title>B-&gt;U</title>
<path fill="none" stroke="black" d="M492.956,-365.62C536.847,-340.589 641.916,-280.67 693.055,-251.507"></path>
<polygon fill="black" stroke="black" points="694.996,-254.429 701.949,-246.435 691.529,-248.348 694.996,-254.429"></polygon>
</g>
<!-- B&#45;&gt;I -->
<g id="edge174" class="edge"><title>B-&gt;I</title>
<path fill="none" stroke="black" d="M451.48,-366.821C426.27,-354.898 384.318,-335.056 355.698,-321.519"></path>
<polygon fill="black" stroke="black" points="357.083,-318.303 346.546,-317.191 354.09,-324.631 357.083,-318.303"></polygon>
</g>
<!-- Q&#45;&gt;Y -->
<g id="edge50" class="edge"><title>Q-&gt;Y</title>
<path fill="none" stroke="black" d="M433.38,-74.8345C444.196,-64.872 458.857,-51.3687 471.051,-40.1371"></path>
<polygon fill="black" stroke="black" points="473.659,-42.4937 478.643,-33.1445 468.916,-37.3448 473.659,-42.4937"></polygon>
</g>
<!-- X&#45;&gt;S -->
<g id="edge28" class="edge"><title>X-&gt;S</title>
<path fill="none" stroke="black" d="M799.619,-365.137C758.49,-339.964 662.354,-281.122 614.737,-251.977"></path>
<polygon fill="black" stroke="black" points="616.519,-248.964 606.163,-246.729 612.865,-254.935 616.519,-248.964"></polygon>
</g>
<!-- X&#45;&gt;M -->
<g id="edge30" class="edge"><title>X-&gt;M</title>
<path fill="none" stroke="black" d="M842.298,-368.417C875.863,-356.05 937.98,-333.165 976.179,-319.092"></path>
<polygon fill="black" stroke="black" points="977.636,-322.285 985.809,-315.544 975.216,-315.717 977.636,-322.285"></polygon>
</g>
<!-- X&#45;&gt;D -->
<g id="edge132" class="edge"><title>X-&gt;D</title>
<path fill="none" stroke="black" d="M820.016,-359.863C821.385,-330.202 822.56,-267.527 812,-216 810.127,-206.859 806.895,-197.214 803.569,-188.694"></path>
<polygon fill="black" stroke="black" points="806.746,-187.217 799.697,-179.307 800.274,-189.886 806.746,-187.217"></polygon>
</g>
<!-- X&#45;&gt;I -->
<g id="edge36" class="edge"><title>X-&gt;I</title>
<path fill="none" stroke="black" d="M792.789,-373.286C710.309,-361.598 455.941,-325.554 361.121,-312.118"></path>
<polygon fill="black" stroke="black" points="361.54,-308.643 351.148,-310.705 360.558,-315.574 361.54,-308.643"></polygon>
</g>
<!-- U&#45;&gt;Y -->
<g id="edge128" class="edge"><title>U-&gt;Y</title>
<path fill="none" stroke="black" d="M707.04,-218.959C667.987,-182.304 562.786,-83.5624 516.443,-40.0647"></path>
<polygon fill="black" stroke="black" points="518.702,-37.3845 509.015,-33.0928 513.911,-42.4885 518.702,-37.3845"></polygon>
</g>
<!-- U&#45;&gt;D -->
<g id="edge184" class="edge"><title>U-&gt;D</title>
<path fill="none" stroke="black" d="M736.504,-218.496C746.265,-208.735 759.31,-195.69 770.3,-184.7"></path>
<polygon fill="black" stroke="black" points="772.918,-187.031 777.515,-177.485 767.969,-182.082 772.918,-187.031"></polygon>
</g>
<!-- U&#45;&gt;J -->
<g id="edge136" class="edge"><title>U-&gt;J</title>
<path fill="none" stroke="black" d="M722,-215.871C722,-191.67 722,-147.211 722,-118.393"></path>
<polygon fill="black" stroke="black" points="725.5,-118.189 722,-108.189 718.5,-118.189 725.5,-118.189"></polygon>
</g>
<!-- U&#45;&gt;Q -->
<g id="edge170" class="edge"><title>U-&gt;Q</title>
<path fill="none" stroke="black" d="M700.137,-222.788C646.895,-197.918 510.382,-134.152 448.869,-105.419"></path>
<polygon fill="black" stroke="black" points="450.206,-102.181 439.665,-101.12 447.244,-108.523 450.206,-102.181"></polygon>
</g>
<!-- I&#45;&gt;Y -->
<g id="edge106" class="edge"><title>I-&gt;Y</title>
<path fill="none" stroke="black" d="M323.602,-287.737C321.137,-244.648 321.132,-131.563 382,-72 403.756,-50.7101 435.68,-36.763 459.885,-28.5459"></path>
<polygon fill="black" stroke="black" points="460.963,-31.8759 469.403,-25.4716 458.811,-25.2147 460.963,-31.8759"></polygon>
</g>
<!-- I&#45;&gt;D -->
<g id="edge52" class="edge"><title>I-&gt;D</title>
<path fill="none" stroke="black" d="M348.542,-296.947C377.383,-286.955 427.635,-269.134 470,-252 506.522,-237.229 513.572,-228.293 551,-216 621.948,-192.697 708.017,-176.555 755.719,-168.627"></path>
<polygon fill="black" stroke="black" points="756.556,-172.037 765.861,-166.969 755.427,-165.128 756.556,-172.037"></polygon>
</g>
<!-- I&#45;&gt;J -->
<g id="edge172" class="edge"><title>I-&gt;J</title>
<path fill="none" stroke="black" d="M338.398,-290.033C367.727,-258.205 441.157,-183.491 518,-144 572.606,-115.937 643.262,-101.893 685.474,-95.5462"></path>
<polygon fill="black" stroke="black" points="686.166,-98.9828 695.566,-94.0946 685.169,-92.0541 686.166,-98.9828"></polygon>
</g>
<!-- I&#45;&gt;Q -->
<g id="edge186" class="edge"><title>I-&gt;Q</title>
<path fill="none" stroke="black" d="M326.411,-287.937C329.556,-257.311 339.122,-191.759 366,-144 372.984,-131.59 383.624,-120.022 393.463,-110.879"></path>
<polygon fill="black" stroke="black" points="395.946,-113.355 401.098,-104.097 391.297,-108.122 395.946,-113.355"></polygon>
</g>
<!-- E&#45;&gt;M -->
<g id="edge38" class="edge"><title>E-&gt;M</title>
<path fill="none" stroke="black" d="M1035.44,-432.153C1030.33,-407.944 1020.84,-363.054 1014.73,-334.133"></path>
<polygon fill="black" stroke="black" points="1018.14,-333.328 1012.65,-324.268 1011.29,-334.775 1018.14,-333.328"></polygon>
</g>
<!-- K&#45;&gt;W -->
<g id="edge144" class="edge"><title>K-&gt;W</title>
<path fill="none" stroke="black" d="M853,-575.697C853,-567.983 853,-558.712 853,-550.112"></path>
<polygon fill="black" stroke="black" points="856.5,-550.104 853,-540.104 849.5,-550.104 856.5,-550.104"></polygon>
</g>
<!-- K&#45;&gt;B -->
<g id="edge176" class="edge"><title>K-&gt;B</title>
<path fill="none" stroke="black" d="M828.618,-586.137C799.159,-577.387 748.509,-560.86 708,-540 625.938,-497.741 538.621,-431.523 497.332,-398.744"></path>
<polygon fill="black" stroke="black" points="499.468,-395.971 489.47,-392.465 495.099,-401.44 499.468,-395.971"></polygon>
</g>
<!-- K&#45;&gt;U -->
<g id="edge116" class="edge"><title>K-&gt;U</title>
<path fill="none" stroke="black" d="M840.676,-577.509C833.034,-567.318 823.474,-553.426 817,-540 792.47,-489.129 746.844,-326.163 729.213,-261.653"></path>
<polygon fill="black" stroke="black" points="732.543,-260.56 726.537,-251.831 725.789,-262.4 732.543,-260.56"></polygon>
</g>
<!-- K&#45;&gt;E -->
<g id="edge48" class="edge"><title>K-&gt;E</title>
<path fill="none" stroke="black" d="M876.163,-584.557C898.875,-575.609 933.808,-560.01 960,-540 984.455,-521.317 1007.2,-494.244 1021.94,-474.869"></path>
<polygon fill="black" stroke="black" points="1024.77,-476.935 1027.94,-466.826 1019.16,-472.749 1024.77,-476.935"></polygon>
</g>
<!-- R -->
<g id="node49" class="node"><title>R</title>
<ellipse fill="none" stroke="black" cx="891" cy="-810" rx="27" ry="18"></ellipse>
<text text-anchor="middle" x="891" y="-805.8" font-family="Times,serif" font-size="14.00">R</text>
</g>
<!-- R&#45;&gt;Z -->
<g id="edge152" class="edge"><title>R-&gt;Z</title>
<path fill="none" stroke="black" d="M915.435,-801.903C958.558,-789.377 1048.26,-763.322 1097.61,-748.988"></path>
<polygon fill="black" stroke="black" points="1098.87,-752.266 1107.5,-746.116 1096.92,-745.544 1098.87,-752.266"></polygon>
</g>
<!-- R&#45;&gt;T -->
<g id="edge134" class="edge"><title>R-&gt;T</title>
<path fill="none" stroke="black" d="M880.692,-793.261C864.491,-768.525 832.952,-720.368 813.852,-691.204"></path>
<polygon fill="black" stroke="black" points="816.761,-689.257 808.354,-682.81 810.905,-693.093 816.761,-689.257"></polygon>
</g>
<!-- R&#45;&gt;G -->
<g id="edge138" class="edge"><title>R-&gt;G</title>
<path fill="none" stroke="black" d="M910.816,-797.441C930.27,-786.092 960.157,-768.658 982.228,-755.784"></path>
<polygon fill="black" stroke="black" points="984.281,-758.638 991.155,-750.576 980.754,-752.592 984.281,-758.638"></polygon>
</g>
<!-- R&#45;&gt;I -->
<g id="edge122" class="edge"><title>R-&gt;I</title>
<path fill="none" stroke="black" d="M863.997,-807.954C759.703,-803.719 383.278,-786.6 268,-756 177.093,-731.869 76,-761.055 76,-667 76,-667 76,-667 76,-521 76,-408.77 223.292,-342.587 291.307,-318.008"></path>
<polygon fill="black" stroke="black" points="292.855,-321.174 301.125,-314.551 290.53,-314.571 292.855,-321.174"></polygon>
</g>
<!-- R&#45;&gt;K -->
<g id="edge54" class="edge"><title>R-&gt;K</title>
<path fill="none" stroke="black" d="M887.955,-791.849C881.365,-754.74 865.74,-666.747 857.804,-622.054"></path>
<polygon fill="black" stroke="black" points="861.202,-621.169 856.007,-611.935 854.31,-622.393 861.202,-621.169"></polygon>
</g>
<!-- N&#45;&gt;D -->
<g id="edge114" class="edge"><title>N-&gt;D</title>
<path fill="none" stroke="black" d="M888.392,-431.957C881.937,-392.529 863.14,-292.547 828,-216 823.336,-205.84 816.786,-195.489 810.549,-186.663"></path>
<polygon fill="black" stroke="black" points="813.233,-184.405 804.498,-178.409 807.588,-188.543 813.233,-184.405"></polygon>
</g>
<!-- N&#45;&gt;J -->
<g id="edge72" class="edge"><title>N-&gt;J</title>
<path fill="none" stroke="black" d="M892.753,-431.713C896.911,-380.947 902.031,-230.449 828,-144 809.381,-122.258 779.693,-108.494 756.465,-100.459"></path>
<polygon fill="black" stroke="black" points="757.55,-97.131 746.958,-97.359 755.38,-103.786 757.55,-97.131"></polygon>
</g>
<!-- N&#45;&gt;B -->
<g id="edge74" class="edge"><title>N-&gt;B</title>
<path fill="none" stroke="black" d="M869.655,-438.951C863.431,-436.352 856.542,-433.785 850,-432 728.343,-398.806 578.619,-385.651 510.239,-381.103"></path>
<polygon fill="black" stroke="black" points="510.183,-377.593 499.98,-380.446 509.735,-384.578 510.183,-377.593"></polygon>
</g>
<!-- N&#45;&gt;X -->
<g id="edge98" class="edge"><title>N-&gt;X</title>
<path fill="none" stroke="black" d="M876.43,-434.834C866.25,-424.938 852.476,-411.546 840.969,-400.359"></path>
<polygon fill="black" stroke="black" points="843.405,-397.846 833.796,-393.385 838.526,-402.865 843.405,-397.846"></polygon>
</g>
<!-- A&#45;&gt;Y -->
<g id="edge92" class="edge"><title>A-&gt;Y</title>
<path fill="none" stroke="black" d="M158.395,-433.165C142.413,-407.72 114,-355.645 114,-307 114,-307 114,-307 114,-161 114,-88.0256 363.009,-40.1457 457.882,-24.5516"></path>
<polygon fill="black" stroke="black" points="458.568,-27.9862 467.881,-22.9343 457.45,-21.0761 458.568,-27.9862"></polygon>
</g>
<!-- A&#45;&gt;J -->
<g id="edge156" class="edge"><title>A-&gt;J</title>
<path fill="none" stroke="black" d="M170.199,-431.882C173.21,-400.298 183.527,-332.069 218,-288 337.117,-135.726 590.402,-100.967 685.182,-93.189"></path>
<polygon fill="black" stroke="black" points="685.455,-96.6785 695.158,-92.4234 684.919,-89.699 685.455,-96.6785"></polygon>
</g>
<!-- A&#45;&gt;B -->
<g id="edge194" class="edge"><title>A-&gt;B</title>
<path fill="none" stroke="black" d="M194.136,-443.212C248.195,-430.764 375.63,-401.421 437.738,-387.12"></path>
<polygon fill="black" stroke="black" points="438.875,-390.449 447.834,-384.795 437.304,-383.628 438.875,-390.449"></polygon>
</g>
<!-- C&#45;&gt;S -->
<g id="edge166" class="edge"><title>C-&gt;S</title>
<path fill="none" stroke="black" d="M515.04,-503.795C517.857,-464.444 527.447,-365.308 556,-288 559.673,-278.055 565.171,-267.838 570.521,-259.062"></path>
<polygon fill="black" stroke="black" points="573.548,-260.825 575.961,-250.509 567.641,-257.068 573.548,-260.825"></polygon>
</g>
<!-- C&#45;&gt;Y -->
<g id="edge198" class="edge"><title>C-&gt;Y</title>
<path fill="none" stroke="black" d="M487.104,-519.373C411.093,-514.446 196.127,-498.145 133,-468 80.791,-443.069 38,-436.856 38,-379 38,-379 38,-379 38,-161 38,-94.9555 96.1452,-97.6626 157,-72 259.402,-28.817 392.745,-20.4639 456.653,-19.0818"></path>
<polygon fill="black" stroke="black" points="457.089,-22.5751 467.028,-18.9066 456.97,-15.5761 457.089,-22.5751"></polygon>
</g>
<!-- C&#45;&gt;B -->
<g id="edge192" class="edge"><title>C-&gt;B</title>
<path fill="none" stroke="black" d="M509.136,-504.153C502.108,-479.813 489.044,-434.568 480.699,-405.665"></path>
<polygon fill="black" stroke="black" points="483.995,-404.462 477.858,-395.825 477.269,-406.403 483.995,-404.462"></polygon>
</g>
<!-- C&#45;&gt;Q -->
<g id="edge188" class="edge"><title>C-&gt;Q</title>
<path fill="none" stroke="black" d="M492.923,-510.605C445.661,-485.947 332,-418.802 289,-324 262.32,-265.178 313.111,-186.678 346,-144 357.534,-129.034 374.379,-116.316 388.877,-107.094"></path>
<polygon fill="black" stroke="black" points="390.817,-110.01 397.531,-101.814 387.172,-104.034 390.817,-110.01"></polygon>
</g>
<!-- C&#45;&gt;U -->
<g id="edge100" class="edge"><title>C-&gt;U</title>
<path fill="none" stroke="black" d="M525.479,-505.216C560.079,-457.641 663.504,-315.432 704.745,-258.725"></path>
<polygon fill="black" stroke="black" points="707.759,-260.532 710.81,-250.386 702.098,-256.415 707.759,-260.532"></polygon>
</g>
<!-- C&#45;&gt;E -->
<g id="edge120" class="edge"><title>C-&gt;E</title>
<path fill="none" stroke="black" d="M540.603,-517.801C606.27,-509.859 781.313,-488.402 927,-468 952.389,-464.444 980.962,-460.102 1002.89,-456.696"></path>
<polygon fill="black" stroke="black" points="1003.43,-460.154 1012.77,-455.155 1002.35,-453.238 1003.43,-460.154"></polygon>
</g>
<!-- C&#45;&gt;N -->
<g id="edge182" class="edge"><title>C-&gt;N</title>
<path fill="none" stroke="black" d="M539.616,-516.244C605.304,-504.047 779.869,-471.634 855.373,-457.615"></path>
<polygon fill="black" stroke="black" points="856.155,-461.03 865.348,-455.763 854.877,-454.147 856.155,-461.03"></polygon>
</g>
</g>
</svg>
